<svg xmlns="http://www.w3.org/2000/svg" width="360" height="96" viewBox="0 0 360 96" fill="none">
  <defs>
    <linearGradient id="gSky" x1="0" y1="0" x2="0" y2="1">
      <stop offset="0%" stop-color="#0F1C30" stop-opacity="0.9"/>
      <stop offset="100%" stop-color="#1E2F4A" stop-opacity="0.9"/>
    </linearGradient>
    <linearGradient id="gPeak" x1="0" y1="0" x2="1" y2="1">
      <stop offset="0%" stop-color="#3AD6B0"/>
      <stop offset="100%" stop-color="#1FA2FF"/>
    </linearGradient>
    <linearGradient id="gSun" x1="0" y1="0" x2="1" y2="1">
      <stop offset="0%" stop-color="#FFCF57"/>
      <stop offset="100%" stop-color="#FF8A5C"/>
    </linearGradient>
  </defs>
  <g transform="translate(12 10)">
    <circle cx="68" cy="18" r="10" fill="url(#gSun)" />
    <path d="M-4 60 L42 18 L80 54 L112 30 L148 62" fill="url(#gPeak)" opacity="0.95" />
    <path d="M26 64 L74 22 L112 54 L146 36 L172 66" fill="#2E8BC0" opacity="0.85" />
    <path d="M40 30 L52 22 L64 30 Z" fill="#F7FBFF" opacity="0.95" />
    <path d="M94 36 L106 26 L118 36 Z" fill="#F7FBFF" opacity="0.95" />
    <path d="M132 46 L144 36 L156 46 Z" fill="#F7FBFF" opacity="0.95" />
    <path d="M-10 68 C34 72 98 76 176 68 L176 78 L-10 78 Z" fill="url(#gSky)" opacity="0.7" />
  </g>
  <g transform="translate(176 24)">
    <text x="0" y="28" fill="#F5F9FF" font-family="'Inter','Segoe UI',Arial,sans-serif" font-weight="800" font-size="28" letter-spacing="1.1">Carphatian</text>
    <text x="0" y="58" fill="#8FF0D2" font-family="'Inter','Segoe UI',Arial,sans-serif" font-weight="700" font-size="26" letter-spacing="1.4">CMS</text>
    <rect x="0" y="66" width="144" height="4" rx="2" fill="url(#gPeak)" opacity="0.9" />
  </g>
</svg>
